<!-- <svg xmlns="http://www.w3.org/2000/svg" viewBox="0 0 24 24">
    <path fill="#8347AD" d="M12 3v18c4.97 0 9-4.03 9-9s-4.03-9-9-9"></path>
    <circle fill="#8347AD" cx="6" cy="14" r="1"></circle>
    <circle fill="#8347AD" cx="6" cy="18" r="1"></circle>
    <circle fill="#8347AD" cx="6" cy="10" r="1"></circle>
    <circle fill="#8347AD" cx="3" cy="10" r=".5"></circle>
    <circle fill="#8347AD" cx="6" cy="6" r="1"></circle>
    <circle fill="#8347AD" cx="3" cy="14" r=".5"></circle>
    <circle fill="#8347AD" cx="10" cy="21" r=".5"></circle>
    <circle fill="#8347AD" cx="10" cy="3" r=".5"></circle>
    <circle fill="#8347AD" cx="10" cy="6" r="1"></circle>
    <circle fill="#8347AD" cx="10" cy="14" r="1.5"></circle>
    <circle fill="#8347AD" cx="10" cy="10" r="1.5"></circle>
    <circle fill="#8347AD" cx="10" cy="18" r="1"></circle>
</svg> -->

<!-- <svg xmlns="http://www.w3.org/2000/svg" viewBox="0 0 24 24">
    <path fill="#8347AD"
        d="M6 13c-.55 0-1 .45-1 1s.45 1 1 1 1-.45 1-1-.45-1-1-1m0 4c-.55 0-1 .45-1
1s.45 1 1 1 1-.45 1-1-.45-1-1-1m0-8c-.55 0-1 .45-1 1s.45 1 1 1 1-.45 1-1-.45-1-1-1m-3 .5c-.28
0-.5.22-.5.5s.22.5.5.5.5-.22.5-.5-.22-.5-.5-.5M6 5c-.55 0-1 .45-1 1s.45 1 1 1 1-.45
1-1-.45-1-1-1m15
5.5c.28 0 .5-.22.5-.5s-.22-.5-.5-.5-.5.22-.5.5.22.5.5.5M14 7c.55 0 1-.45 1-1s-.45-1-1-1-1 .45-1 1
.45 1 1 1m0-3.5c.28 0 .5-.22.5-.5s-.22-.5-.5-.5-.5.22-.5.5.22.5.5.5m-11 10c-.28
0-.5.22-.5.5s.22.5.5.5.5-.22.5-.5-.22-.5-.5-.5m7 7c-.28
0-.5.22-.5.5s.22.5.5.5.5-.22.5-.5-.22-.5-.5-.5m0-17c.28 0
.5-.22.5-.5s-.22-.5-.5-.5-.5.22-.5.5.22.5.5.5M10 7c.55 0 1-.45 1-1s-.45-1-1-1-1 .45-1 1 .45 1 1 1m0
5.5c-.83 0-1.5.67-1.5 1.5s.67 1.5 1.5 1.5 1.5-.67 1.5-1.5-.67-1.5-1.5-1.5m8 .5c-.55 0-1 .45-1 1s.45
1 1 1 1-.45 1-1-.45-1-1-1m0 4c-.55 0-1 .45-1 1s.45 1 1 1 1-.45 1-1-.45-1-1-1m0-8c-.55 0-1 .45-1
1s.45 1 1 1 1-.45 1-1-.45-1-1-1m0-4c-.55 0-1 .45-1 1s.45 1 1 1 1-.45 1-1-.45-1-1-1m3 8.5c-.28
0-.5.22-.5.5s.22.5.5.5.5-.22.5-.5-.22-.5-.5-.5M14 17c-.55 0-1 .45-1 1s.45 1 1 1 1-.45
1-1-.45-1-1-1m0 3.5c-.28 0-.5.22-.5.5s.22.5.5.5.5-.22.5-.5-.22-.5-.5-.5m-4-12c-.83 0-1.5.67-1.5
1.5s.67 1.5 1.5 1.5 1.5-.67 1.5-1.5-.67-1.5-1.5-1.5m0 8.5c-.55 0-1 .45-1 1s.45 1 1 1 1-.45
1-1-.45-1-1-1m4-4.5c-.83 0-1.5.67-1.5 1.5s.67 1.5 1.5 1.5 1.5-.67 1.5-1.5-.67-1.5-1-1.5m0-4c-.83
0-1.5.67-1.5 1.5s.67 1.5 1.5 1.5 1.5-.67 1.5-1.5-.67-1.5-1.5-1.5"></path>
</svg>  -->

<svg xmlns="http://www.w3.org/2000/svg" viewBox="0 0 24 24">
  <circle fill="#8347AD" cx="7.2" cy="14.4" r="3.2" />
  <circle fill="#8347AD" cx="14.8" cy="18" r="2" />
  <circle fill="#8347AD" cx="15.2" cy="8.8" r="4.8" />
</svg>



